# xmcd
#
# Track frame offsets: 
#        150
#        36722
#        71217
#        97890
#        131572
#        166317
#        195100
#        224325
#        251682
#        294367
#        319252
#
# Disc length: 4541 seconds
#
# Revision: 14
# Processed by: cddbd v1.5.2PL0 Copyright (c) Steve Scherf et al.
# Submitted via: ExactAudioCopyFreeDBPlugin 1.0
#
DISCID=a411bb0b
DTITLE=Various Artist - The Funk Box [box set]
DYEAR=2000
DGENRE=Funk
TTITLE0=Rick James - You and I
TTITLE1=Fatback - I Like Girls
TTITLE2=Bohannon - Let's Start the Dance
TTITLE3=Funkadelic - One Nation Under a Groove
TTITLE4=Chuck Brown and The Soul Searchers - Bustin' Loose
TTITLE5=Cameo - I Just Want to Be (12" extended mix)
TTITLE6=Pleasure - Glide
TTITLE7=Teena Marie - Behind the Groove
TTITLE8=Zapp - More Bounce to the Ounce
TTITLE9=The Gap Band - Burn Rubber (Why You Wanna Hurt Me)
TTITLE10=George Clinton - Atomic Dog
EXTD=
EXTT0=
EXTT1=
EXTT2=
EXTT3=
EXTT4=
EXTT5=
EXTT6=
EXTT7=
EXTT8=
EXTT9=
EXTT10=
PLAYORDER=
